# xmcd
#
# Track frame offsets:
#	150
#	17017
#	33770
#	47035
#	62030
#	77520
#	91555
#	105142
#	123702
#	138075
#	154725
#	174365
#	192947
#	206565
#	222545
#	237952
#
# Disc length: 3343 seconds
#
# Revision: 0
# Processed by: cddbd v1.5.1PL2 Copyright (c) Steve Scherf et al.
# Submitted via: dBpowerAMP V4.0
#
DISCID=c60d0d10
DTITLE=ZEZO - CORAÇÃO TEIMOSO
DYEAR=2005
DGENRE=Acid Jazz
TTITLE0=NOSSA HISTORIA
TTITLE1=O QUE TEM DE SER SERÁ
TTITLE2=TENTO DESFAÇAR
TTITLE3=PÉ NA ESTRADA
TTITLE4=TERRENO BALDIO
TTITLE5=CORAÇÃO TEIMOSO
TTITLE6=VIDA DE VIAJANTE
TTITLE7=ABRI A PORTA
TTITLE8=AS ÁGUAS DE NORONHA
TTITLE9=DE VOLTA PRO ACONCHEGO
TTITLE10=CIDADE NUA
TTITLE11=RIQUEZA SEM FELICIDADE
TTITLE12=FORRÓ Nº 1
TTITLE13=GOSTOSO DEMAIS
TTITLE14=NEM SE DESPEDIU DE MIM
TTITLE15=PAGODE RUSSO
EXTD=
EXTT0=
EXTT1=
EXTT2=
EXTT3=
EXTT4=
EXTT5=
EXTT6=
EXTT7=
EXTT8=
EXTT9=
EXTT10=
EXTT11=
EXTT12=
EXTT13=
EXTT14=
EXTT15=
PLAYORDER=
